PathFileType	4	(X/Y/Z)	C:/Users/beibeiliu/ov580/test_trc/capture2\sequence.32_training_dense_left.trc
DataRate	CameraRate	NumFrames	NumMarkers	Units	OrigDataRate	OrigDataStartFrame	OrigNumFrames
120	120	8	19	mm	120	1	327
Frame#	Time	ThumbCMC			ThumbMCP			ThumbIP			ThumbTip			IndexMCP			IndexPIP			IndexTip			MiddleMCP			MiddlePIP			MiddleTip			RingMCP			RingPIP			RingTip			PinkyMCP			PinkyPIP			PinkyTip			BackHand1			BackHand2			BackHand3	
		X0	Y0	Z0	X1	Y1	Z1	X2	Y2	Z2	X3	Y3	Z3	X4	Y4	Z4	X5	Y5	Z5	X6	Y6	Z6	X7	Y7	Z7	X8	Y8	Z8	X9	Y9	Z9	X10	Y10	Z10	X11	Y11	Z11	X12	Y12	Z12	X13	Y13	Z13	X14	Y14	Z14	X15	Y15	Z15	X16	Y16	Z16	X17	Y17	Z17	X18	Y18	Z18	
0	0	-113.584	-4.01341	92.0361	-95.064	-17.7037	78.331	-71.487	-21.8067	63.8858	-53.2892	-26.5535	47.1138	-110.39	11.2143	16.704	-100.65	8.40691	-6.68366	-94.2757	6.60535	-36.5699	-130.074	14.5207	3.90151	-127.521	12.3205	-23.2587	-125.695	6.58289	-52.1142	-149.514	12.1148	1.52105	-149.703	10.6534	-20.3807	-148.377	5.72018	-47.3462	-176.603	4.65245	8.6518	-178.456	1.40411	-9.7268	-178.551	4.0173	-35.4573	-161.044	21.4837	49.7455	-170.352	22.9412	83.2696	-135.573	21.5694	72.7251	
1	0.00833333	-114.87	-3.81663	89.7582	-94.2494	-15.9284	77.3496	-76.6283	-20.6602	60.6451	-54.8271	-25.4363	46.7384	-110.745	12.5773	15.7296	-101.636	10.329	-10.8019	-96.6854	6.68823	-37.7564	-129.002	15.5911	2.00866	-126.992	13.5103	-20.1243	-125.866	7.76605	-51.763	-154.283	13.45	2.93065	-148.792	10.5685	-20.1445	-147.036	6.55502	-51.7176	-174.608	4.89647	13.1414	-178.704	2.5068	-14.4716	-181.654	5.93292	-33.9742	-164.326	21.4677	53.154	-168.642	24.842	81.269	-134.461	21.3881	71.6649	
2	0.0166667	-115.666	-3.86619	91.9632	-97.1304	-15.711	79.3531	-72.2614	-20.5205	59.8003	-58.8101	-24.5302	49.3272	-104.741	12.8532	14.1619	-102.08	10.9656	-8.10259	-93.5862	8.20297	-32.4388	-131.479	17.1821	5.49815	-126.77	14.3613	-20.8133	-122.747	9.37723	-49.0956	-149.192	13.7626	6.1546	-148.019	10.5809	-24.1007	-147.874	7.20592	-50.2288	-175.515	7.62309	12.0121	-178.785	3.60881	-11.9043	-179.734	4.86184	-34.0553	-164.237	23.5011	52.9167	-167.69	24.3007	81.5941	-136.328	22.0758	74.5109	
3	0.025	-111.157	-2.09098	88.369	-96.5128	-14.4912	76.1503	-74.481	-19.1857	61.0407	-58.3893	-23.5612	51.2169	-107.613	14.6131	14.1663	-97.1851	13.021	-10.4225	-99.1233	10.2782	-32.7426	-129.412	18.3039	7.1802	-126.788	16.0089	-23.0783	-125.452	10.7898	-50.4469	-148.253	15.2855	3.41901	-148.988	12.1491	-23.0375	-146.301	9.21685	-45.0366	-171.238	8.01639	13.8271	-174.41	6.59354	-11.1706	-180.113	9.03764	-33.9583	-161.806	23.6654	50.3942	-170.972	26.4354	79.4477	-133.995	23.7621	71.915	
4	0.0333333	-116.524	-1.1372	89.9867	-94.502	-13.2543	74.6417	-72.5434	-18.2305	63.1593	-55.0931	-22.5793	50.7215	-105.886	16.266	17.5203	-100.054	15.2211	-6.48644	-94.7099	12.7351	-32.003	-126.399	21.1516	1.62498	-123.843	16.7043	-25.2954	-123.085	13.033	-49.139	-153.394	15.9301	2.85169	-147.709	13.8307	-24.7873	-147.756	9.31228	-50.4759	-176.696	9.39634	10.2691	-173.881	7.17389	-10.3089	-180.767	10.0435	-34.9954	-162.872	26.3697	50.3415	-165.396	27.543	78.9825	-135.126	24.1115	71.0837	
5	0.0416667	-115.419	0.523419	85.5347	-96.3286	-11.5929	74.527	-73.8384	-16.5556	58.1287	-54.8399	-21.6402	49.5376	-106.254	17.0554	17.9854	-102.675	15.4556	-11.8456	-96.0182	13.1886	-32.7858	-131.537	21.3334	1.16704	-125.741	18.8619	-23.4265	-126.555	13.5308	-51.4224	-154.939	17.1534	1.99628	-151.961	14.7257	-25.8267	-150.851	10.9373	-48.5465	-175.303	11.0363	10.2403	-175.38	7.93569	-9.25893	-182.078	8.32662	-35.1788	-161.615	26.577	53.7333	-169.436	27.721	79.5432	-133.389	25.0491	72.455	
6	0.05	-113.926	1.9816	85.9962	-94.4164	-10.809	74.3373	-77.5054	-17.2244	61.1719	-58.4563	-20.6294	48.4512	-109.897	18.6326	11.2872	-100.994	15.8988	-7.86252	-99.0249	13.7354	-34.2761	-133.207	22.4188	-0.242859	-126.766	19.8653	-21.8176	-124.847	15.4681	-53.5878	-151.627	18.1587	4.36603	-152.198	16.1431	-23.395	-147.371	13.2288	-52.3777	-178.529	11.3058	8.97421	-178.624	8.39475	-15.7385	-182.78	10.0411	-37.3559	-161.872	25.2914	53.4906	-172.326	28.7671	80.0652	-137.78	28.062	72.2123	
7	0.0583333	-115.96	2.68466	90.1602	-96.8424	-10.9732	76.6183	-72.7703	-15.5913	59.535	-56.0358	-20.4587	50.358	-109.323	19.6802	12.5724	-99.6794	15.9819	-12.7264	-100.156	14.5818	-35.0465	-131.692	22.7672	0.0511664	-127.973	20.0794	-23.1664	-121.434	14.8563	-55.7326	-151.462	19.3526	2.84943	-154.731	16.8646	-24.5757	-150.902	13.6511	-49.5205	-178.2	13.1184	6.32083	-178.088	9.29085	-12.3202	-182.261	10.3932	-40.418	-167.346	26.8359	51.8438	-172.013	29.3232	77.8974	-134.894	29.2187	71.7465	
